<svg xmlns="http://www.w3.org/2000/svg" width="758" height="489" fill="none" viewBox="0 0 758 489">
  <path fill="#FFFCFC" d="M402 19.118c-2.452 11.043-7.208 31.99-10.553 46.715a21572.079 21572.079 0 0 1-10.404 45.576 26719.771 26719.771 0 0 0-13.005 56.971c-4.757 20.947-9.736 43.034-11.148 49.082-1.412 6.047-8.918 38.915-16.721 73.185-17.39 76.252-32.03 139.796-35.003 151.979-1.263 4.995-2.007 9.378-1.635 9.728 2.304 2.454 45.928 36.724 46.076 36.198 2.23-9.29 23.633-103.16 39.239-172.05 4.756-20.947 11.148-48.819 14.12-61.791 5.723-24.541 20.437-88.873 27.126-118.761 3.493-15.601 21.849-95.008 22.666-98.251.298-.964-5.573-6.048-21.551-18.844C419.167 9.3 408.689.887 407.871.274 406.608-.778 406.236.36 402 19.118Zm96.76 76.953c-6.391 15.163-11.445 28.047-11.296 28.485.149.526 8.398 6.749 18.431 13.849a40254.965 40254.965 0 0 0 52.393 37.425 72687.62 72687.62 0 0 0 59.081 42.07c31.436 22.437 36.49 26.119 36.192 26.995-.223.789-9.884 7.713-111.177 79.495-30.247 21.474-55.069 39.354-55.069 39.704 0 .614 22.816 54.867 23.41 55.656.372.438 247.102-174.329 247.102-175.03 0-.263-15.458-11.57-34.408-24.979-18.877-13.41-55.217-39.354-80.782-57.497-25.565-18.142-58.636-41.719-73.573-52.324-14.938-10.606-34.112-24.279-42.584-30.414-8.472-6.047-15.606-11.043-15.829-11.043-.223 0-5.574 12.446-11.891 27.608ZM243.929 70.128c-.817.876-23.261 17.003-65.027 46.54-16.126 11.482-45.556 32.342-65.398 46.453a61551.182 61551.182 0 0 1-74.316 52.763C18.156 230.784.543 243.493.023 244.019c-.669.788 13.228 11.043 59.453 43.823C159.209 358.485 221.932 403.185 236.2 413.79c4.608 3.418 8.621 5.872 8.918 5.522.298-.351 5.797-13.06 12.188-28.223 9.141-21.473 11.445-27.696 10.628-28.309-.521-.439-2.825-2.104-5.054-3.682-8.472-6.047-46.225-33.042-59.453-42.596-7.58-5.434-22.444-16.127-33.071-23.664-21.775-15.514-60.196-43.035-64.507-46.19l-2.898-2.104 16.647-11.92c9.067-6.573 30.321-21.648 47.042-33.568 103.82-73.798 102.928-73.097 102.557-74.587-.743-2.542-23.781-55.13-24.153-55.13-.297 0-.743.35-1.115.789Z"/>
</svg>
